<svg width="52" height="32" viewBox="0 0 52 32" fill="none" xmlns="http://www.w3.org/2000/svg">
<path fill-rule="evenodd" clip-rule="evenodd" d="M40.6834 1.31007C40.7975 1.19538 40.7162 1 40.5545 1H21.786C19.3989 1.0123 17.4675 2.95121 17.4675 5.34122C17.4675 7.73123 19.3989 9.67014 21.786 9.68242H32.2793C32.3277 9.68242 32.3741 9.66313 32.4082 9.62882L40.6834 1.31007Z" stroke="white" stroke-width="2"/>
<path fill-rule="evenodd" clip-rule="evenodd" d="M25.6906 15.9931C25.7616 15.9221 25.7616 15.8069 25.6905 15.7359L18.4722 8.52601C18.464 8.51783 18.4628 8.50496 18.4694 8.49543C18.4763 8.48539 18.4748 8.47186 18.4658 8.46361C18.316 8.32597 17.1452 7.19597 17.1186 5.45487C17.0904 3.60308 18.5551 2.48915 18.5667 2.47737L12.6437 8.12812C12.5146 8.2307 12.3901 8.34169 12.2708 8.46109C10.5764 10.1564 10.5764 12.9051 12.2708 14.6005C12.279 14.6088 12.2873 14.617 12.2957 14.6252L19.5119 21.9168C19.5829 21.9884 19.6985 21.9887 19.7698 21.9174L25.6906 15.9931Z" stroke="white" stroke-width="2"/>
<path fill-rule="evenodd" clip-rule="evenodd" d="M39.7036 17.1039L32.4858 9.81507C32.4138 9.74239 32.296 9.74336 32.2253 9.81722L26.5519 15.7383C26.4843 15.8089 26.4845 15.9202 26.5524 15.9905L33.5238 23.2032C33.5317 23.2114 33.5328 23.2242 33.5263 23.2336C33.5193 23.2437 33.5208 23.2573 33.5299 23.2656C33.6801 23.4036 34.8512 24.5335 34.8778 26.2743C34.906 28.1261 33.549 29.422 33.5375 29.4338L39.3553 23.6011C39.4844 23.4985 39.6091 23.3875 39.7285 23.2681C41.4238 21.5727 41.4238 18.824 39.7285 17.1287C39.7202 17.1204 39.7119 17.1121 39.7036 17.1039Z" stroke="white" stroke-width="2"/>
<path fill-rule="evenodd" clip-rule="evenodd" d="M11.631 30.3738C11.5169 30.4885 11.5981 30.6839 11.7599 30.6839H30.5284C32.9155 30.6716 34.8469 28.7326 34.8469 26.3426C34.8469 23.9526 32.9155 22.0137 30.5284 22.0014H20.0351C19.9867 22.0014 19.9403 22.0207 19.9062 22.055L11.631 30.3738Z" stroke="white" stroke-width="2"/>
</svg>
