<svg width="32" height="32" viewBox="0 0 32 32" fill="none" xmlns="http://www.w3.org/2000/svg">
<rect width="32" height="32" rx="8" fill="black"/>
<path fill-rule="evenodd" clip-rule="evenodd" d="M25.2667 7.19081C25.3369 7.12024 25.2869 7 25.1874 7H13.6375C12.1685 7.00757 10.98 8.20074 10.98 9.67152C10.98 11.1423 12.1685 12.3355 13.6375 12.343H20.0949C20.1247 12.343 20.1533 12.3312 20.1743 12.31L25.2667 7.19081Z" stroke="white" stroke-width="1.3"/>
<path fill-rule="evenodd" clip-rule="evenodd" d="M16.0404 16.2265C16.0841 16.1828 16.084 16.112 16.0403 16.0683L11.5983 11.6314C11.5932 11.6264 11.5925 11.6184 11.5966 11.6126C11.6008 11.6064 11.5999 11.5981 11.5944 11.593C11.5021 11.5083 10.7817 10.8129 10.7653 9.74146C10.7479 8.60189 11.6493 7.9164 11.6564 7.90915L8.0115 11.3865C7.93209 11.4497 7.85544 11.518 7.78201 11.5914C6.73933 12.6347 6.73933 14.3262 7.78201 15.3695C7.78711 15.3746 7.79222 15.3797 7.79734 15.3847L12.2381 19.8719C12.2818 19.9159 12.3529 19.9161 12.3968 19.8722L16.0404 16.2265Z" stroke="white" stroke-width="1.3"/>
<path fill-rule="evenodd" clip-rule="evenodd" d="M24.6637 16.9101L20.222 12.4247C20.1777 12.3799 20.1053 12.3805 20.0617 12.426L16.5704 16.0697C16.5288 16.1131 16.5289 16.1817 16.5707 16.2249L20.8608 20.6635C20.8657 20.6686 20.8663 20.6764 20.8623 20.6822C20.858 20.6884 20.859 20.6968 20.8645 20.7019C20.957 20.7868 21.6776 21.4821 21.694 22.5534C21.7114 23.693 20.8763 24.4905 20.8692 24.4977L24.4494 20.9084C24.5289 20.8452 24.6056 20.7769 24.6791 20.7034C25.7224 19.6601 25.7224 17.9686 24.6791 16.9253C24.674 16.9202 24.6689 16.9152 24.6637 16.9101Z" stroke="white" stroke-width="1.3"/>
<path fill-rule="evenodd" clip-rule="evenodd" d="M7.38831 25.0762C7.3181 25.1467 7.36809 25.267 7.46764 25.267H19.0175C20.4865 25.2594 21.675 24.0662 21.675 22.5955C21.675 21.1247 20.4865 19.9315 19.0175 19.924H12.5601C12.5303 19.924 12.5017 19.9358 12.4807 19.9569L7.38831 25.0762Z" stroke="white" stroke-width="1.3"/>
</svg>
